<svg width="33" height="33" viewBox="0 0 33 33" fill="none" xmlns="http://www.w3.org/2000/svg">
<g clip-path="url(#clip0_15_383)">
<path d="M29.3775 0.290924H17.7757V4.36365H25.7569L0.127197 29.9933L3.00662 32.8727L28.6363 7.24307V15.2243H32.709V3.62242C32.7079 2.73918 32.3566 1.89243 31.7321 1.26789C31.1075 0.643343 30.2608 0.292002 29.3775 0.290924Z" fill="#7753B9"/>
<path d="M8.95138 15.2243C10.1596 15.2243 11.3408 14.866 12.3454 14.1947C13.35 13.5234 14.1331 12.5693 14.5954 11.453C15.0578 10.3367 15.1788 9.10839 14.9431 7.92334C14.7074 6.73829 14.1255 5.64976 13.2712 4.79539C12.4168 3.94102 11.3282 3.35918 10.1432 3.12346C8.95815 2.88774 7.72982 3.00872 6.61353 3.4711C5.49724 3.93349 4.54313 4.7165 3.87185 5.72114C3.20058 6.72577 2.84229 7.9069 2.84229 9.11517C2.84408 10.7348 3.48829 12.2877 4.63358 13.433C5.77887 14.5782 7.3317 15.2225 8.95138 15.2243ZM8.95138 7.0788C9.35413 7.0788 9.74784 7.19823 10.0827 7.42199C10.4176 7.64575 10.6786 7.96379 10.8327 8.33588C10.9869 8.70798 11.0272 9.11742 10.9486 9.51244C10.87 9.90746 10.6761 10.2703 10.3913 10.5551C10.1065 10.8399 9.74367 11.0338 9.34865 11.1124C8.95364 11.191 8.54419 11.1506 8.17209 10.9965C7.8 10.8424 7.48196 10.5814 7.2582 10.2465C7.03444 9.91163 6.91501 9.51792 6.91501 9.11517C6.91501 8.57509 7.12956 8.05713 7.51145 7.67524C7.89334 7.29335 8.4113 7.0788 8.95138 7.0788Z" fill="#7753B9"/>
<path d="M23.8847 17.9394C22.6765 17.9394 21.4953 18.2977 20.4907 18.969C19.4861 19.6403 18.703 20.5944 18.2407 21.7106C17.7783 22.8269 17.6573 24.0553 17.893 25.2403C18.1287 26.4254 18.7106 27.5139 19.5649 28.3683C20.4193 29.2226 21.5079 29.8045 22.6929 30.0402C23.878 30.2759 25.1063 30.1549 26.2226 29.6926C27.3389 29.2302 28.293 28.4472 28.9643 27.4425C29.6355 26.4379 29.9938 25.2568 29.9938 24.0485C29.992 22.4288 29.3478 20.876 28.2025 19.7307C27.0572 18.5854 25.5044 17.9412 23.8847 17.9394ZM23.8847 26.0849C23.482 26.0849 23.0883 25.9654 22.7534 25.7417C22.4185 25.5179 22.1575 25.1999 22.0034 24.8278C21.8492 24.4557 21.8089 24.0462 21.8875 23.6512C21.9661 23.2562 22.16 22.8934 22.4448 22.6086C22.7296 22.3238 23.0924 22.1298 23.4875 22.0513C23.8825 21.9727 24.2919 22.013 24.664 22.1671C25.0361 22.3213 25.3541 22.5823 25.5779 22.9172C25.8017 23.252 25.9211 23.6457 25.9211 24.0485C25.9211 24.5886 25.7065 25.1065 25.3247 25.4884C24.9428 25.8703 24.4248 26.0849 23.8847 26.0849Z" fill="#7753B9"/>
</g>
<defs>
<clipPath id="clip0_15_383">
<rect width="32.5818" height="32.5818" fill="white" transform="translate(0.127197 0.290924)"/>
</clipPath>
</defs>
</svg>
