<svg width="25" height="24" viewBox="0 0 25 24" fill="none" xmlns="http://www.w3.org/2000/svg">
<path d="M7.20873 2.68695C8.36082 -0.896654 13.654 -0.894649 14.8061 2.68695C15.0217 3.32166 14.5113 3.97541 13.8415 3.97541H8.17332C7.50352 3.97541 6.99315 3.32166 7.20873 2.68695ZM24.0419 12.4983V15.5063C24.0419 16.3366 23.3691 17.0104 22.5378 17.0104H22.4536C21.7788 18.6718 20.5635 20.0575 19.0264 20.9479C19.1066 24.348 14.2917 25.1893 13.1848 22.0238H10.8345C9.72548 25.1903 4.91257 24.347 4.99279 20.9479C1.44828 19.0508 -0.132956 14.0043 1.84836 10.3746C-1.50363 8.31906 -0.00160361 2.94063 3.98809 2.97272C5.96439 3.00681 5.9654 5.9467 3.98809 5.98079C2.82498 5.97076 2.62344 7.68135 3.73742 7.95508C5.1472 6.72679 6.98914 5.98079 9.00154 5.98079H15.0177C15.1139 5.98079 15.2092 5.98279 15.3054 5.9868C15.9652 4.01853 17.6477 3.27754 18.8159 2.99979C19.4385 2.8514 20.0311 3.34071 20.0311 3.98042V7.74652C21.093 8.59881 21.9332 9.7148 22.4536 10.9952H22.5378C23.3691 10.9952 24.0419 11.669 24.0419 12.4993V12.4983ZM3.98809 14.0023C3.98809 16.7667 6.23712 19.0157 9.00154 19.0157H15.0177C21.6444 18.8042 21.6404 9.19841 15.0177 8.98885H9.00154C6.23712 8.98885 3.98809 11.2379 3.98809 14.0023ZM16.5217 14.0023C18.499 13.9682 18.498 11.0273 16.5217 10.9942C14.5444 11.0283 14.5454 13.9692 16.5217 14.0023Z" fill="#2362F5"/>
</svg>
