<svg width="28" height="28" viewBox="0 0 28 28" fill="none" xmlns="http://www.w3.org/2000/svg">
<g clip-path="url(#clip0_17_488)">
<path d="M14 28C6.28017 28 0 21.7198 0 14C0 6.28017 6.28017 0 14 0C21.7198 0 28 6.28017 28 14C28 21.7198 21.7198 28 14 28ZM14 2.33333C7.567 2.33333 2.33333 7.567 2.33333 14C2.33333 20.433 7.567 25.6667 14 25.6667C20.433 25.6667 25.6667 20.433 25.6667 14C25.6667 7.567 20.433 2.33333 14 2.33333ZM15.1667 21V14.3127L17.3437 10.542C17.6657 9.98433 17.4743 9.27033 16.9167 8.94833C16.3578 8.62633 15.645 8.81767 15.323 9.37533L12.9897 13.4167C12.8882 13.594 12.8333 13.7947 12.8333 14V21C12.8333 21.6452 13.356 22.1667 14 22.1667C14.644 22.1667 15.1667 21.6452 15.1667 21Z" fill="#7753B9"/>
</g>
<defs>
<clipPath id="clip0_17_488">
<rect width="28" height="28" fill="white"/>
</clipPath>
</defs>
</svg>
