<svg width="28" height="27" viewBox="0 0 28 27" fill="none" xmlns="http://www.w3.org/2000/svg">
<path d="M2 3C2 2.60218 2.15804 2.22064 2.43934 1.93934C2.72064 1.65804 3.10218 1.5 3.5 1.5H9.5C9.89782 1.5 10.2794 1.65804 10.5607 1.93934C10.842 2.22064 11 2.60218 11 3V10.5C11 10.8978 10.842 11.2794 10.5607 11.5607C10.2794 11.842 9.89782 12 9.5 12H3.5C3.10218 12 2.72064 11.842 2.43934 11.5607C2.15804 11.2794 2 10.8978 2 10.5V3ZM17 3C17 2.60218 17.158 2.22064 17.4393 1.93934C17.7206 1.65804 18.1022 1.5 18.5 1.5H24.5C24.8978 1.5 25.2794 1.65804 25.5607 1.93934C25.842 2.22064 26 2.60218 26 3V6C26 6.39782 25.842 6.77936 25.5607 7.06066C25.2794 7.34196 24.8978 7.5 24.5 7.5H18.5C18.1022 7.5 17.7206 7.34196 17.4393 7.06066C17.158 6.77936 17 6.39782 17 6V3ZM2 19.5C2 19.1022 2.15804 18.7206 2.43934 18.4393C2.72064 18.158 3.10218 18 3.5 18H9.5C9.89782 18 10.2794 18.158 10.5607 18.4393C10.842 18.7206 11 19.1022 11 19.5V24C11 24.3978 10.842 24.7794 10.5607 25.0607C10.2794 25.342 9.89782 25.5 9.5 25.5H3.5C3.10218 25.5 2.72064 25.342 2.43934 25.0607C2.15804 24.7794 2 24.3978 2 24V19.5ZM17 15C17 14.6022 17.158 14.2206 17.4393 13.9393C17.7206 13.658 18.1022 13.5 18.5 13.5H24.5C24.8978 13.5 25.2794 13.658 25.5607 13.9393C25.842 14.2206 26 14.6022 26 15V24C26 24.3978 25.842 24.7794 25.5607 25.0607C25.2794 25.342 24.8978 25.5 24.5 25.5H18.5C18.1022 25.5 17.7206 25.342 17.4393 25.0607C17.158 24.7794 17 24.3978 17 24V15Z" stroke="#2362F5" stroke-width="3"/>
</svg>
